# xmcd
# Track frame offsets:
# 150
# 10118
# 27159
# 41099
# 58987
# 75950
# 87656
# 104280
# 127155
# 141570
# 157381
# 169761
# 188597
#
# Disc length: 2760 seconds
# Revision: 0
# Processed by: cddbd v1.5.1PL2 Copyright (c) Steve Scherf et al.
# Submitted via: VisiTrax 2.10.0.248 - For more info visit www.synapsa.com
#
DISCID=b40ac60d
DTITLE=Various Artist - Country Cares for Kids '99
DYEAR=1900
DGENRE=
TTITLE0=Woodie Procell and the Snowy River Band - She's the She
TTITLE1=Mario and Durango Band - It Takes a Heart
TTITLE2=Jed Lance - Beyond the Shadow of a Doubt
TTITLE3=Jay Clementi - I Didn't Warn You
TTITLE4=K.C. Yates and Morning Star - Hell Without You Here
TTITLE5=Mario and Durango Band - Grand Tour of Drunk
TTITLE6=Duey and Rough Stock - Cowboy Ride On
TTITLE7=Woodie Procell and the Snowy River Band - Late Night TV
TTITLE8=K.C. Yates and Morning Star - You Started It
TTITLE9=Jay Clementi - Completely
TTITLE10=Jed Lance - Goin' Out Tonight
TTITLE11=Duey and Rough Stock - She Said I Do
TTITLE12=Jimmy Ibbotson and Company - Sunday Morning In My Soul
EXTD=
EXTT0=
EXTT1=
EXTT2=
EXTT3=
EXTT4=
EXTT5=
EXTT6=
EXTT7=
EXTT8=
EXTT9=
EXTT10=
EXTT11=
EXTT12=
PLAYORDER=
